<svg id="Layer_1" data-name="Layer 1" xmlns="http://www.w3.org/2000/svg" xmlns:xlink="http://www.w3.org/1999/xlink" viewBox="0 0 600 179.77"><defs><style>.cls-1{fill:url(#linear-gradient);}.cls-2{fill:#fff;}.cls-3{fill:url(#linear-gradient-2);}.cls-4{fill:url(#linear-gradient-3);}.cls-5{fill:url(#linear-gradient-4);}.cls-6{fill:url(#linear-gradient-6);}.cls-7{fill:url(#linear-gradient-8);}.cls-8{fill:url(#linear-gradient-9);}.cls-9{fill:url(#linear-gradient-10);}</style><linearGradient id="linear-gradient" x1="-9.81" y1="90.31" x2="191.71" y2="89.46" gradientUnits="userSpaceOnUse"><stop offset="0" stop-color="#005fea"/><stop offset="1" stop-color="#01c1fb"/></linearGradient><linearGradient id="linear-gradient-2" x1="311.32" y1="303.9" x2="717.76" y2="303.9" xlink:href="#linear-gradient"/><linearGradient id="linear-gradient-3" x1="311.32" y1="308.87" x2="717.76" y2="308.87" xlink:href="#linear-gradient"/><linearGradient id="linear-gradient-4" x1="311.32" y1="300.88" x2="717.76" y2="300.88" xlink:href="#linear-gradient"/><linearGradient id="linear-gradient-6" x1="311.32" y1="308.37" x2="717.76" y2="308.37" xlink:href="#linear-gradient"/><linearGradient id="linear-gradient-8" x1="311.32" y1="299.93" x2="717.76" y2="299.93" xlink:href="#linear-gradient"/><linearGradient id="linear-gradient-9" x1="311.32" y1="308.78" x2="717.76" y2="308.78" xlink:href="#linear-gradient"/><linearGradient id="linear-gradient-10" x1="311.32" y1="309.28" x2="717.76" y2="309.28" xlink:href="#linear-gradient"/></defs><title>TalentKraftLogoJan29</title><circle class="cls-1" cx="89.89" cy="89.89" r="89.89"/><path class="cls-2" d="M215.94,244.32l-4.2-2.95a5.1,5.1,0,0,0-7,1.09c-6.62,8.73-16.82,21.92-27.44,35.57l-30.86-21.19a3.32,3.32,0,0,0-4.39.56L138,262.06a3.32,3.32,0,0,0,.24,4.6l27.66,26c-11.68,15-22.47,28.76-28.05,35.88a7,7,0,0,0,1.66,10.18c.83.55,1.67,1.08,2.48,1.57a7,7,0,0,0,8.65-1.06c36.07-36.46,59.71-75.72,66.81-88.23A5.09,5.09,0,0,0,215.94,244.32Z" transform="translate(-100.1 -210.26)"/><path class="cls-2" d="M248.82,301.18a42.76,42.76,0,0,1,1.34,5.94,3.65,3.65,0,0,1-3,4.1L214,316.88a3.67,3.67,0,0,0-3,4.14l4.52,31.77a3.66,3.66,0,0,1-2.65,4,28.61,28.61,0,0,1-6.4,1.06,3.65,3.65,0,0,1-3.68-3L194.1,308a3.67,3.67,0,0,1,3.22-4.32l47.59-5.11A3.65,3.65,0,0,1,248.82,301.18Z" transform="translate(-100.1 -210.26)"/><path class="cls-3" d="M330.52,314.49V297.86h-5.63v-9l6.29-.5,1.41-10.92h10.09v10.92h9.85v9.51h-9.85v16.47c0,4.63,2.07,6.53,5.3,6.53a11.76,11.76,0,0,0,3.89-.82l1.9,8.85a29.6,29.6,0,0,1-9.1,1.49C334.49,330.38,330.52,324,330.52,314.49Z" transform="translate(-100.1 -210.26)"/><path class="cls-4" d="M357,318c0-8.61,6.86-13.32,23.08-15-.25-3.64-2-5.95-6.45-5.95-3.48,0-6.87,1.4-10.84,3.72l-4.39-8c5.22-3.14,11.09-5.37,17.54-5.37,10.51,0,16.3,5.95,16.3,18.53v23.5h-9.93l-.82-4.22h-.33c-3.48,3.06-7.29,5.21-11.92,5.21C361.71,330.38,357,324.92,357,318Zm23.08-.5v-7.2c-8.61,1.16-11.42,3.64-11.42,6.79,0,2.65,1.82,3.89,4.72,3.89C376.11,321,377.93,319.62,380.08,317.47Z" transform="translate(-100.1 -210.26)"/><path class="cls-5" d="M402.5,316.64V271.39h12.16v45.75c0,2.57,1.16,3.39,2.15,3.39a5.26,5.26,0,0,0,1.49-.16l1.49,9a15.82,15.82,0,0,1-6.12,1C405.31,330.38,402.5,324.92,402.5,316.64Z" transform="translate(-100.1 -210.26)"/><path class="cls-4" d="M423.76,308.87c0-13.32,9.52-21.51,19.36-21.51,11.67,0,17.46,8.52,17.46,19.69a27.51,27.51,0,0,1-.49,5.37H435.51c1.08,6,5.22,8.69,10.68,8.69a16.53,16.53,0,0,0,8.85-2.73l4,7.37a26.89,26.89,0,0,1-14.56,4.63C432.78,330.38,423.76,322.44,423.76,308.87Zm26.48-4.47c0-4.55-2-7.78-6.87-7.78-3.8,0-7.11,2.57-7.94,7.78Z" transform="translate(-100.1 -210.26)"/><path class="cls-6" d="M469,288.35H479l.83,5.21h.33c3.47-3.31,7.61-6.2,13.15-6.2,8.94,0,12.74,6.28,12.74,16.54v25.49H493.84V305.47c0-6-1.57-7.77-5-7.77-3.06,0-5,1.4-7.61,4v27.72H469Z" transform="translate(-100.1 -210.26)"/><path class="cls-3" d="M518,314.49V297.86h-5.63v-9l6.29-.5,1.41-10.92h10.09v10.92H540v9.51h-9.85v16.47c0,4.63,2.07,6.53,5.3,6.53a11.65,11.65,0,0,0,3.88-.82l1.91,8.85a29.6,29.6,0,0,1-9.1,1.49C522,330.38,518,324,518,314.49Z" transform="translate(-100.1 -210.26)"/><path class="cls-7" d="M549.44,270.48h6.7v39.88h.25l17.13-21.18H581l-13.48,16.13,15.3,24.08h-7.44L563.67,310l-7.53,8.77v10.59h-6.7Z" transform="translate(-100.1 -210.26)"/><path class="cls-8" d="M590.39,289.18H596l.58,7.28h.25c2.73-5,6.86-8.28,11.41-8.28a10,10,0,0,1,4.31.83l-1.33,6a11.08,11.08,0,0,0-3.89-.66c-3.39,0-7.44,2.48-10.17,9.26v25.82h-6.79Z" transform="translate(-100.1 -210.26)"/><path class="cls-9" d="M614.63,319c0-8.77,7.53-13.15,24.66-15.06,0-5.13-1.66-10.09-8.28-10.09-4.63,0-8.85,2.15-12,4.3l-2.65-4.71c3.72-2.4,9.35-5.22,15.8-5.22,9.85,0,14,6.54,14,16.55v24.66h-5.63l-.58-4.8h-.25c-3.8,3.14-8.27,5.79-13.32,5.79C619.68,330.38,614.63,326.16,614.63,319Zm24.66.58V308.37c-13.4,1.66-18,5-18,10.09,0,4.56,3.15,6.46,7.12,6.46S635.4,323,639.29,319.54Z" transform="translate(-100.1 -210.26)"/><path class="cls-7" d="M660,294.72h-5.46v-5.13l5.46-.41V282.8c0-8.19,3.73-13.32,11.75-13.32a18.11,18.11,0,0,1,6.7,1.33L676.93,276a11.32,11.32,0,0,0-4.55-1c-3.8,0-5.62,2.64-5.62,7.77v6.38h14.72l.83-11.26h5.63v11.26h10.92v5.54H687.94v22.34c0,5,1.65,7.78,6.29,7.78a14.6,14.6,0,0,0,4.55-1.08l1.32,5.13a24.92,24.92,0,0,1-7.45,1.49c-8.6,0-11.5-5.46-11.5-13.41V294.72H666.76v34.67H660Z" transform="translate(-100.1 -210.26)"/></svg>